<?xml version="1.0" encoding="UTF-8"?>
<svg width="210mm" height="297mm" version="1.1" viewBox="0 0 210 297" xmlns="http://www.w3.org/2000/svg">
 <g transform="matrix(.265 0 0 .265 99.7 143)" style="fill:none">
  <path class="ccustom" d="m18.5 0.0544c-9.85 0.73-17.7 8.6-18.4 18.4h7.14c6.24 0 11.3-5.06 11.3-11.3v-7.14zm3 0v7.14c0 6.24 5.06 11.3 11.3 11.3h7.14c-0.73-9.85-8.6-17.7-18.4-18.4zm-1.5 13.5c-1.39 2.77-3.65 5.03-6.42 6.42 2.77 1.39 5.03 3.65 6.42 6.42 1.39-2.77 3.65-5.03 6.42-6.42-2.77-1.39-5.03-3.65-6.42-6.42zm-19.9 7.92c0.73 9.85 8.6 17.7 18.4 18.4v-7.14c0-6.24-5.06-11.3-11.3-11.3h-7.14zm32.7 0c-6.24 0-11.3 5.06-11.3 11.3v7.14c9.85-0.73 17.7-8.6 18.4-18.4h-7.14z"/>
 </g>
 <path d="m0 0"/>
 <g transform="matrix(.265 0 0 .265 99.7 145)" style="fill:none">
  <path class="ccustom" d="m9.99 4.11-9.99 9.89c2 1.98 4.28 3.64 6.77 4.95 0.688 1.81 1.77 3.5 3.23 4.95 5.52 5.47 14.5 5.47 20 0 1.47-1.45 2.55-3.15 3.23-4.95 2.49-1.3 4.77-2.97 6.77-4.95l-9.98-9.88c-0.0074-0.00739-0.0148-0.0148-0.0223-0.0222-5.52-5.47-14.5-5.47-20 0-0.00473 0.00471-0.00948 0.00941-0.0142 0.0141zm19.1 16.6c-2.91 0.972-5.96 1.47-9.04 1.47s-6.13-0.498-9.04-1.47c0.315 0.414 0.663 0.812 1.04 1.19 4.42 4.37 11.6 4.37 16 0 0.381-0.377 0.729-0.775 1.04-1.19zm-16.8-14.8c0.75 0.491 1.55 0.911 2.38 1.25 1.72 0.704 3.55 1.07 5.41 1.07s3.7-0.362 5.41-1.07c0.835-0.342 1.63-0.762 2.38-1.25-4.36-4.11-11.2-4.11-15.6 2e-5z" clip-rule="evenodd" fill="#3b4158" fill-rule="evenodd"/>
 </g>
</svg>
