<?xml version="1.0" standalone="no"?>
<!DOCTYPE svg PUBLIC "-//W3C//DTD SVG 20010904//EN"
 "http://www.w3.org/TR/2001/REC-SVG-20010904/DTD/svg10.dtd">
<svg version="1.0" xmlns="http://www.w3.org/2000/svg"
 width="1320.000000pt" height="1000.000000pt" viewBox="0 0 1320.000000 1000.000000"
 preserveAspectRatio="xMidYMid meet">

<g transform="translate(0.000000,1000.000000) scale(0.100000,-0.100000)"
fill="#000000" stroke="none">
<path d="M7621 6210 c-129 -27 -214 -133 -214 -270 0 -192 125 -310 317 -298
87 6 139 31 193 92 86 98 91 271 10 378 -59 79 -192 121 -306 98z"/>
<path d="M5443 5328 c5 -902 3 -870 67 -1035 155 -403 629 -604 1108 -472 301
84 511 298 584 597 27 112 28 302 3 412 -51 221 -181 413 -357 527 -143 94
-280 133 -462 133 -160 0 -271 -37 -381 -126 l-55 -45 0 415 0 416 -256 0
-256 0 5 -822z m1042 -323 c79 -23 157 -92 197 -172 32 -66 33 -71 33 -193 0
-122 -1 -127 -33 -192 -60 -123 -162 -185 -319 -195 -197 -13 -325 55 -384
203 -20 51 -23 77 -23 184 0 106 3 134 22 181 42 107 131 178 249 199 63 12
196 4 258 -15z"/>
<path d="M10720 5735 c0 -228 -3 -415 -6 -415 -3 0 -26 17 -50 38 -105 93
-224 132 -404 132 -230 0 -411 -74 -568 -232 -114 -113 -180 -230 -223 -393
-21 -77 -24 -112 -23 -245 1 -139 4 -164 28 -245 84 -276 279 -468 558 -549
349 -101 710 -27 941 192 103 99 173 219 219 378 22 79 22 81 26 917 l3 837
-251 0 -250 0 0 -415z m-213 -737 c71 -26 144 -93 172 -157 27 -63 40 -186 30
-278 -18 -171 -109 -274 -267 -304 -151 -28 -311 11 -397 96 -107 107 -134
324 -59 480 45 95 145 168 258 186 76 12 199 1 263 -23z"/>
<path d="M2640 6115 c-78 -19 -143 -49 -221 -101 -96 -63 -162 -141 -216 -254
-25 -52 -49 -102 -53 -110 -4 -8 -44 -31 -89 -50 l-81 -34 65 -41 66 -40 -5
-44 c-39 -298 -26 -588 35 -811 124 -455 618 -770 1209 -771 229 -1 354 30
592 148 257 127 501 305 698 509 92 95 220 248 220 262 0 4 -39 13 -87 20 -49
6 -126 24 -173 38 -479 148 -957 513 -1369 1047 -79 102 -147 165 -216 200
-90 45 -261 60 -375 32z m-88 -362 c88 -84 -51 -197 -142 -115 -39 34 -43 82
-10 117 40 42 106 42 152 -2z m1088 -592 c278 -62 528 -232 612 -417 33 -74
32 -167 -4 -221 -35 -54 -82 -89 -154 -116 -52 -19 -77 -22 -214 -21 -139 0
-165 3 -245 28 -127 38 -280 115 -369 186 -165 131 -232 269 -196 401 20 72
122 148 224 169 78 15 256 11 346 -9z"/>
<path d="M9135 5490 c-138 -10 -262 -43 -380 -100 -222 -108 -364 -281 -426
-520 -21 -81 -23 -108 -26 -577 l-4 -493 255 0 255 0 3 478 c3 474 3 477 26
527 31 67 93 128 161 159 89 40 239 53 349 30 l22 -4 0 244 0 244 -42 7 c-81
12 -93 12 -193 5z"/>
<path d="M7450 4640 l0 -840 250 0 250 0 0 840 0 840 -250 0 -250 0 0 -840z"/>
</g>
</svg>
